/* XPM */
static char *result[] = {
/* columns rows colors chars-per-pixel */
"64 64 96 2 ",
"   c black",
".  c #040404",
"X  c #070707",
"o  c #090909",
"O  c gray5",
"+  c #101010",
"@  c gray7",
"#  c #1B1B1B",
"$  c gray11",
"%  c gray14",
"&  c #313131",
"*  c #323232",
"=  c #343434",
"-  c gray21",
";  c #373737",
":  c #434343",
">  c gray28",
",  c #494949",
"<  c gray30",
"1  c #505050",
"2  c #515151",
"3  c #555555",
"4  c #565656",
"5  c #5B5B5B",
"6  c gray38",
"7  c #626262",
"8  c gray39",
"9  c #676767",
"0  c DimGray",
"q  c #6A6A6A",
"w  c gray42",
"e  c #6D6D6D",
"r  c #717171",
"t  c gray45",
"y  c gray46",
"u  c #797979",
"i  c gray48",
"p  c gray50",
"a  c #818181",
"s  c #838383",
"d  c gray52",
"f  c #868686",
"g  c #888888",
"h  c #8B8B8B",
"j  c #8D8D8D",
"k  c gray57",
"l  c #929292",
"z  c #959595",
"x  c gray59",
"c  c gray60",
"v  c gray63",
"b  c gray64",
"n  c #AFAFAF",
"m  c gray70",
"M  c #B6B6B6",
"N  c #B7B7B7",
"B  c gray73",
"V  c #BBBBBB",
"C  c #BCBCBC",
"Z  c gray75",
"A  c #C1C1C1",
"S  c gray76",
"D  c #C5C5C5",
"F  c gray79",
"G  c #CBCBCB",
"H  c #CDCDCD",
"J  c #CECECE",
"K  c gray81",
"L  c gray82",
"P  c #D2D2D2",
"I  c gray83",
"U  c gray84",
"Y  c gray85",
"T  c #DADADA",
"R  c #DDDDDD",
"E  c #DFDFDF",
"W  c #E2E2E2",
"Q  c #E4E4E4",
"!  c #E7E7E7",
"~  c gray91",
"^  c #ECECEC",
"/  c gray93",
"(  c #EEEEEE",
")  c #EFEFEF",
"_  c #F1F1F1",
"`  c gray95",
"'  c #F3F3F3",
"]  c gray96",
"[  c #F6F6F6",
"{  c gray97",
"}  c gray98",
"|  c gray99",
" . c #FDFDFD",
".. c #FEFEFE",
"X. c white",
"o. c None",
/* pixels */
"o.o.o.o.                o.o.o.o.o.o.o.o.o.o.o.o.o.o.o.o.o.o.o.o.                        o.o.o.o.o.o.o.o.o.o.o.o.o.o.o.o.o.o.o.o.",
"o.o.o.o.                o.o.o.o.o.o.o.o.o.o.o.o.o.o.o.o.o.o.o.o.                        o.o.o.o.o.o.o.o.o.o.o.o.o.o.o.o.o.o.o.o.",
"o.o.o.o.                o.o.o.o.o.o.o.o.o.o.o.o.o.o.o.o.o.o.o.o.                        o.o.o.o.o.o.o.o.o.o.o.o.o.o.o.o.o.o.o.o.",
"o.o.o.o.                o.o.o.o.o.o.o.o.o.o.o.o.o.o.o.o.o.o.o.o.                        o.o.o.o.o.o.o.o.o.o.o.o.o.o.o.o.o.o.o.o.",
"o.o.o.o.% % % % % % % % o.o.o.o.o.o.o.o.o.o.o.o.o.o.o.o.o.o.o.o.# # # $ % % % % % % % % o.o.o.o.o.o.o.o.o.o.o.o.o.o.o.o.o.o.o.o.",
"      @ R / / / / / / R @       o.o.o.o.o.o.o.o.                n n n m ~ / / / / / / R @       o.o.o.o.o.o.o.o.o.o.o.o.o.o.o.o.",
"      @ / X.X.X.X.X.X./ @       o.o.o.o.o.o.o.o.                C C C A } X.X.X.X.X.X./ @       o.o.o.o.o.o.o.o.o.o.o.o.o.o.o.o.",
"      @ / X.X.X.X.X.X./ @       o.o.o.o.o.o.o.o.                C C C A } X.X.X.X.X.X./ @       o.o.o.o.o.o.o.o.o.o.o.o.o.o.o.o.",
"      @ / X.X.X.X.X.X./ @       o.o.o.o.o.o.o.o.                C C C A } X.X.X.X.X.X./ @       o.o.o.o.o.o.o.o.o.o.o.o.o.o.o.o.",
"      @ / X.X.X.X.X.X.` 4 , , , o.o.o.o.o.o.o.o.- - - ; > , , , f f f j Q ^ ^ ^ X.X.X.` 4 , , , o.o.o.o.o.o.o.o.o.o.o.o.o.o.o.o.",
"      @ / X.X.X.X.X.X.X.X.X.X.X.                C C C A } X.X.X.      O n C C C X.X.X.X.X.X.X.X.        o.o.o.o.o.o.o.o.o.o.o.o.",
"      @ / X.X.X.X.X.X.X.X.X.X.X.                C C C A } X.X.X.      O n C C C X.X.X.X.X.X.X.X.        o.o.o.o.o.o.o.o.o.o.o.o.",
"      @ / X.X.X.X.X.X.X.X.X.X.X.                C C C A } X.X.X.      O n C C C X.X.X.X.X.X.X.X.        o.o.o.o.o.o.o.o.o.o.o.o.",
"      @ / X.X.X.X.X.X.X.X.X.X.X.                C C C A } X.X.X.      O n C C C X.X.X.X.X.X.X.X.        o.o.o.o.o.o.o.o.o.o.o.o.",
"      + U ! ! ! X.X.X.X.X.X.X.X.5 5 5 5 5 5 5 5 u u u a E ! ! ! 5 5 5 8 G I I I X.X.X.X.X.X.X.X.        o.o.o.o.o.o.o.o.o.o.o.o.",
"      O n C C C X.X.X.X.X.X.X.X.X.X.X.X.X.X.X.X.      O n C C C X.X.X.X.X.X.X.X.X.X.X.X.X.X.X.X.        o.o.o.o.o.o.o.o.o.o.o.o.",
"      O n C C C X.X.X.X.X.X.X.X.X.X.X.X.X.X.X.X.      O n C C C X.X.X.X.X.X.X.X.X.X.X.X.X.X.X.X.        o.o.o.o.o.o.o.o.o.o.o.o.",
"      O n C C C X.X.X.X.X.X.X.X.X.X.X.X.X.X.X.X.      O n C C C X.X.X.X.X.X.X.X.X.X.X.X.X.X.X.X.        o.o.o.o.o.o.o.o.o.o.o.o.",
"      O n C C C X.X.X.X.X.X.X.X.X.X.X.X.X.X.X.X.      O n C C C X.X.X.X.X.X.X.X.X.X.X.X.X.X.X.X.        o.o.o.o.o.o.o.o.o.o.o.o.",
"      O 9 w w w W W W Q  .X.X.X.X.X.X.X.X.X.X.X.e e e y L Y Y Y X.X.X.X.X.X.X.X.M M M V } X.X.X.e e e q o.o.o.o.o.o.o.o.o.o.o.o.",
"o.o.o.o.        C C C A } X.X.X.X.X.X.X.X.X.X.X.X.X.X.X.X.X.X.X.X.X.X.X.X.X.X.X.3 3 3 6 ' X.X.X.X.X.X./ @       o.o.o.o.o.o.o.o.",
"o.o.o.o.        C C C A } X.X.X.X.X.X.X.X.X.X.X.X.X.X.X.X.X.X.X.X.X.X.X.X.X.X.X.3 3 3 6 ' X.X.X.X.X.X./ @       o.o.o.o.o.o.o.o.",
"o.o.o.o.        C C C A } X.X.X.X.X.X.X.X.X.X.X.X.X.X.X.X.X.X.X.X.X.X.X.X.X.X.X.3 3 3 6 ' X.X.X.X.X.X./ @       o.o.o.o.o.o.o.o.",
"o.o.o.o.        C C C A } X.X.X.X.X.X.X.X.X.X.X.X.X.X.X.X.X.X.X.X.X.X.X.X.X.X.X.3 3 3 6 ' X.X.X.X.X.X./ @       o.o.o.o.o.o.o.o.",
"o.o.o.o.o.o.o.o.: : : < F I I I X.X.X.X.X.X.X.X.X.X.X.X.X.X.X.X.l l l c { X.X.X.S S S Z z l l l X.X.X./ @       o.o.o.o.o.o.o.o.",
"o.o.o.o.o.o.o.o.      O n C C C X.X.X.X.X.X.X.X.X.X.X.X.X.X.X.X.3 3 3 6 ' X.X.X.X.X.X.' 6 3 3 3 X.X.X./ @       o.o.o.o.o.o.o.o.",
"o.o.o.o.o.o.o.o.      O n C C C X.X.X.X.X.X.X.X.X.X.X.X.X.X.X.X.3 3 3 6 ' X.X.X.X.X.X.' 6 3 3 3 X.X.X./ @       o.o.o.o.o.o.o.o.",
"o.o.o.o.o.o.o.o.      O n C C C X.X.X.X.X.X.X.X.X.X.X.X.X.X.X.X.3 3 3 6 ' X.X.X.X.X.X.' 6 3 3 3 X.X.X./ @       o.o.o.o.o.o.o.o.",
"o.o.o.o.o.o.o.o.      O n C C C X.X.X.X.X.X.X.X.X.X.X.X.X.X.X.X.3 3 3 6 ' X.X.X.X.X.X.' 6 3 3 3 X.X.X./ @       o.o.o.o.o.o.o.o.",
"o.o.o.o.o.o.o.o.      . * - - - K K K P | X.X.X.X.X.X.X.X.X.X.X.J J J F h d d d X.X.X.| P J J J X.X.X./ @       o.o.o.o.o.o.o.o.",
"o.o.o.o.o.o.o.o.                C C C A } X.X.X.X.X.X.X.X.X.X.X.X.X.X.' 6 3 3 3 X.X.X.X.X.X.X.X.X.X.X./ @       o.o.o.o.o.o.o.o.",
"o.o.o.o.o.o.o.o.                C C C A } X.X.X.X.X.X.X.X.X.X.X.X.X.X.' 6 3 3 3 X.X.X.X.X.X.X.X.X.X.X./ @       o.o.o.o.o.o.o.o.",
"o.o.o.o.o.o.o.o.                C C C A } X.X.X.X.X.X.X.X.X.X.X.X.X.X.' 6 3 3 3 X.X.X.X.X.X.X.X.X.X.X./ @       o.o.o.o.o.o.o.o.",
"o.o.o.o.o.o.o.o.                C C C A } X.X.X.X.X.X.X.X.X.X.X.X.X.X.' 6 3 3 3 X.X.X.X.X.X.X.X.X.X.X./ @       o.o.o.o.o.o.o.o.",
"o.o.o.o.o.o.o.o.      X 6 0 0 0 s s s g A D D D X.X.X.X.X.X.X.X.X.X.X. .~ ! ! ! X.X.X.X.X.X.X.X.X.X.X./ @               o.o.o.o.",
"o.o.o.o.o.o.o.o.      o r i i i i i i p N C C C X.X.X.X.X.X.X.X.X.X.X.X.X.X.X.X.X.X.X.X.X.X.X.X.X.X.X./ @               o.o.o.o.",
"o.o.o.o.o.o.o.o.      o r i i i i i i p N C C C X.X.X.X.X.X.X.X.X.X.X.X.X.X.X.X.X.X.X.X.X.X.X.X.X.X.X./ @               o.o.o.o.",
"o.o.o.o.o.o.o.o.      o r i i i i i i p N C C C X.X.X.X.X.X.X.X.X.X.X.X.X.X.X.X.X.X.X.X.X.X.X.X.X.X.X./ @               o.o.o.o.",
"o.o.o.o.o.o.o.o.      o r i i i i i i p N C C C X.X.X.X.X.X.X.X.X.X.X.X.X.X.X.X.X.X.X.X.X.X.X.X.X.X.X./ @               o.o.o.o.",
"o.o.o.o.o.o.o.o.      o r i i i C C C C C C C C X.X.X.X.X.X.X.X.X.X.X.X.X.X.X.X.X.X.X.X.X.X.X.X.      @ / X.X.X.X.X.X./ @       ",
"o.o.o.o.o.o.o.o.      o r i i i C C C C C C C C X.X.X.X.X.X.X.X.X.X.X.X.X.X.X.X.X.X.X.X.X.X.X.X.      @ / X.X.X.X.X.X./ @       ",
"o.o.o.o.o.o.o.o.      o r i i i C C C C C C C C X.X.X.X.X.X.X.X.X.X.X.X.X.X.X.X.X.X.X.X.X.X.X.X.      @ / X.X.X.X.X.X./ @       ",
"o.o.o.o.o.o.o.o.      o r i i i C C C C C C C C X.X.X.X.X.X.X.X.X.X.X.X.X.X.X.X.X.X.X.X.X.X.X.X.      @ / X.X.X.X.X.X./ @       ",
"o.o.o.o.o.o.o.o.      o 7 0 0 0 C C C C C C C C X.X.X.X.X.X.X.X.X.X.X.X.X.X.X.X.X.X.X.X.X.X.X.X.% % % = ) X.X.X.X.X.X./ @       ",
"o.o.o.o.o.o.o.o.o.o.o.o.o o o o C C C C C C C C X.X.X.X.X.X.X.X.X.X.X.X.X.X.X.X.X.X.X.X.X.X.X.X./ / / ( ..X.X.X.X.X.X./ @       ",
"o.o.o.o.o.o.o.o.o.o.o.o.        C C C C C C C C X.X.X.X.X.X.X.X.X.X.X.X.X.X.X.X.X.X.X.X.X.X.X.X.X.X.X.X.X.X.X.X.X.X.X./ @       ",
"o.o.o.o.o.o.o.o.o.o.o.o.        C C C C C C C C X.X.X.X.X.X.X.X.X.X.X.X.X.X.X.X.X.X.X.X.X.X.X.X.X.X.X.X.X.X.X.X.X.X.X./ @       ",
"o.o.o.o.o.o.o.o.o.o.o.o.        C C C C C C C C X.X.X.X.X.X.X.X.X.X.X.X.X.X.X.X.X.X.X.X.X.X.X.X.X.X.X.X.X.X.X.X.X.X.X./ @       ",
"o.o.o.o.o.o.o.o.o.o.o.o.        v v v b B C C C ] ] ] ] ] ] ] ] ] ] ] ] ] ] ] ] T T T R | X.X.X.X.X.X...[ ] ] ] T T T H @       ",
"o.o.o.o.o.o.o.o.o.o.o.o.o.o.o.o.      O n C C C C C C C C C C C C C C C C C C C       @ / X.X.X.X.X.X.} A C C C         o.o.o.o.",
"o.o.o.o.o.o.o.o.o.o.o.o.o.o.o.o.      O n C C C C C C C C C C C C C C C C C C C       @ / X.X.X.X.X.X.} A C C C         o.o.o.o.",
"o.o.o.o.o.o.o.o.o.o.o.o.o.o.o.o.      O n C C C C C C C C C C C C C C C C C C C       @ / X.X.X.X.X.X.} A C C C         o.o.o.o.",
"o.o.o.o.o.o.o.o.o.o.o.o.o.o.o.o.      O n C C C C C C C C C C C C C C C C C C C       @ / X.X.X.X.X.X.} A C C C         o.o.o.o.",
"o.o.o.o.o.o.o.o.o.o.o.o.o.o.o.o.      O t u u u u u u u u u u u u u u u u u u u : : : 1 _ X.X.X.! ! ! E a u u u         o.o.o.o.",
"o.o.o.o.o.o.o.o.o.o.o.o.o.o.o.o.o.o.o.o.                                        C C C A } X.X.X.C C C n O       o.o.o.o.o.o.o.o.",
"o.o.o.o.o.o.o.o.o.o.o.o.o.o.o.o.o.o.o.o.                                        C C C A } X.X.X.C C C n O       o.o.o.o.o.o.o.o.",
"o.o.o.o.o.o.o.o.o.o.o.o.o.o.o.o.o.o.o.o.                                        C C C A } X.X.X.C C C n O       o.o.o.o.o.o.o.o.",
"o.o.o.o.o.o.o.o.o.o.o.o.o.o.o.o.o.o.o.o.                                        C C C A } X.X.X.C C C n O       o.o.o.o.o.o.o.o.",
"o.o.o.o.o.o.o.o.o.o.o.o.o.o.o.o.o.o.o.o.                              . & = = = C C C Z E W W W w w w 9 O       o.o.o.o.o.o.o.o.",
"o.o.o.o.o.o.o.o.o.o.o.o.o.o.o.o.o.o.o.o.o.o.o.o.o.o.o.o.o.o.o.o.      o r i i i C C C C C C C C         o.o.o.o.o.o.o.o.o.o.o.o.",
"o.o.o.o.o.o.o.o.o.o.o.o.o.o.o.o.o.o.o.o.o.o.o.o.o.o.o.o.o.o.o.o.      o r i i i C C C C C C C C         o.o.o.o.o.o.o.o.o.o.o.o.",
"o.o.o.o.o.o.o.o.o.o.o.o.o.o.o.o.o.o.o.o.o.o.o.o.o.o.o.o.o.o.o.o.      o r i i i C C C C C C C C         o.o.o.o.o.o.o.o.o.o.o.o.",
"o.o.o.o.o.o.o.o.o.o.o.o.o.o.o.o.o.o.o.o.o.o.o.o.o.o.o.o.o.o.o.o.      o r i i i C C C C C C C C         o.o.o.o.o.o.o.o.o.o.o.o.",
"o.o.o.o.o.o.o.o.o.o.o.o.o.o.o.o.o.o.o.o.o.o.o.o.o.o.o.o.o.o.o.o.      o r i i i x x x k 4 2 2 2 o.o.o.o.o.o.o.o.o.o.o.o.o.o.o.o."
};
